<mxfile host="Electron" agent="Mozilla/5.0 (Windows NT 10.0; Win64; x64) AppleWebKit/537.36 (KHTML, like Gecko) draw.io/26.0.9 Chrome/128.0.6613.186 Electron/32.2.5 Safari/537.36" version="26.0.9">
  <diagram name="Page-1" id="BixvuU-vG3Zlzlj8YfOG">
    <mxGraphModel dx="1900" dy="621" grid="1" gridSize="10" guides="1" tooltips="1" connect="1" arrows="1" fold="1" page="1" pageScale="1" pageWidth="850" pageHeight="1100" math="0" shadow="0">
      <root>
        <mxCell id="0" />
        <mxCell id="1" parent="0" />
        <mxCell id="O8DtlJlHFQ9Xr1stWpEL-6" value="gold.dim_customers" style="shape=table;startSize=30;container=1;collapsible=0;childLayout=tableLayout;fixedRows=1;rowLines=0;fontStyle=1;strokeColor=#d79b00;fontSize=16;rounded=1;fillColor=#ffe6cc;" vertex="1" parent="1">
          <mxGeometry x="-10" y="60" width="190" height="420" as="geometry" />
        </mxCell>
        <mxCell id="O8DtlJlHFQ9Xr1stWpEL-7" value="" style="shape=tableRow;horizontal=0;startSize=0;swimlaneHead=0;swimlaneBody=0;top=0;left=0;bottom=0;right=0;collapsible=0;dropTarget=0;fillColor=none;points=[[0,0.5],[1,0.5]];portConstraint=eastwest;strokeColor=inherit;fontSize=16;" vertex="1" parent="O8DtlJlHFQ9Xr1stWpEL-6">
          <mxGeometry y="30" width="190" height="30" as="geometry" />
        </mxCell>
        <mxCell id="O8DtlJlHFQ9Xr1stWpEL-8" value="&lt;b&gt;&lt;u&gt;PK&lt;/u&gt;&lt;/b&gt;" style="shape=partialRectangle;html=1;whiteSpace=wrap;connectable=0;fillColor=none;top=0;left=0;bottom=0;right=0;overflow=hidden;pointerEvents=1;strokeColor=inherit;fontSize=16;" vertex="1" parent="O8DtlJlHFQ9Xr1stWpEL-7">
          <mxGeometry width="42" height="30" as="geometry">
            <mxRectangle width="42" height="30" as="alternateBounds" />
          </mxGeometry>
        </mxCell>
        <mxCell id="O8DtlJlHFQ9Xr1stWpEL-9" value="&lt;font style=&quot;font-size: 15px;&quot;&gt;&lt;i&gt;Customer key&lt;/i&gt;&lt;/font&gt;" style="shape=partialRectangle;html=1;whiteSpace=wrap;connectable=0;fillColor=none;top=0;left=0;bottom=0;right=0;align=left;spacingLeft=6;overflow=hidden;strokeColor=inherit;fontSize=16;" vertex="1" parent="O8DtlJlHFQ9Xr1stWpEL-7">
          <mxGeometry x="42" width="148" height="30" as="geometry">
            <mxRectangle width="148" height="30" as="alternateBounds" />
          </mxGeometry>
        </mxCell>
        <mxCell id="O8DtlJlHFQ9Xr1stWpEL-53" value="" style="shape=link;html=1;rounded=0;entryX=0.981;entryY=0.947;entryDx=0;entryDy=0;entryPerimeter=0;exitX=0.215;exitY=-0.027;exitDx=0;exitDy=0;exitPerimeter=0;" edge="1" parent="O8DtlJlHFQ9Xr1stWpEL-6" source="O8DtlJlHFQ9Xr1stWpEL-10">
          <mxGeometry width="100" relative="1" as="geometry">
            <mxPoint x="43.69999999999992" y="58.99999999999997" as="sourcePoint" />
            <mxPoint x="189.9999999999999" y="58.99999999999997" as="targetPoint" />
          </mxGeometry>
        </mxCell>
        <mxCell id="O8DtlJlHFQ9Xr1stWpEL-10" value="" style="shape=tableRow;horizontal=0;startSize=0;swimlaneHead=0;swimlaneBody=0;top=0;left=0;bottom=0;right=0;collapsible=0;dropTarget=0;fillColor=none;points=[[0,0.5],[1,0.5]];portConstraint=eastwest;strokeColor=inherit;fontSize=16;" vertex="1" parent="O8DtlJlHFQ9Xr1stWpEL-6">
          <mxGeometry y="60" width="190" height="30" as="geometry" />
        </mxCell>
        <mxCell id="O8DtlJlHFQ9Xr1stWpEL-11" value="" style="shape=partialRectangle;html=1;whiteSpace=wrap;connectable=0;fillColor=none;top=0;left=0;bottom=0;right=0;overflow=hidden;strokeColor=inherit;fontSize=16;" vertex="1" parent="O8DtlJlHFQ9Xr1stWpEL-10">
          <mxGeometry width="42" height="30" as="geometry">
            <mxRectangle width="42" height="30" as="alternateBounds" />
          </mxGeometry>
        </mxCell>
        <mxCell id="O8DtlJlHFQ9Xr1stWpEL-12" value="&lt;font style=&quot;font-size: 15px;&quot;&gt;&lt;i&gt;Customer_ id&lt;/i&gt;&lt;/font&gt;" style="shape=partialRectangle;html=1;whiteSpace=wrap;connectable=0;fillColor=none;top=0;left=0;bottom=0;right=0;align=left;spacingLeft=6;overflow=hidden;strokeColor=inherit;fontSize=16;" vertex="1" parent="O8DtlJlHFQ9Xr1stWpEL-10">
          <mxGeometry x="42" width="148" height="30" as="geometry">
            <mxRectangle width="148" height="30" as="alternateBounds" />
          </mxGeometry>
        </mxCell>
        <mxCell id="O8DtlJlHFQ9Xr1stWpEL-13" value="" style="shape=tableRow;horizontal=0;startSize=0;swimlaneHead=0;swimlaneBody=0;top=0;left=0;bottom=0;right=0;collapsible=0;dropTarget=0;fillColor=none;points=[[0,0.5],[1,0.5]];portConstraint=eastwest;strokeColor=inherit;fontSize=16;" vertex="1" parent="O8DtlJlHFQ9Xr1stWpEL-6">
          <mxGeometry y="90" width="190" height="40" as="geometry" />
        </mxCell>
        <mxCell id="O8DtlJlHFQ9Xr1stWpEL-14" value="" style="shape=partialRectangle;html=1;whiteSpace=wrap;connectable=0;fillColor=none;top=0;left=0;bottom=0;right=0;overflow=hidden;strokeColor=inherit;fontSize=16;" vertex="1" parent="O8DtlJlHFQ9Xr1stWpEL-13">
          <mxGeometry width="42" height="40" as="geometry">
            <mxRectangle width="42" height="40" as="alternateBounds" />
          </mxGeometry>
        </mxCell>
        <mxCell id="O8DtlJlHFQ9Xr1stWpEL-15" value="&lt;i&gt;&lt;font style=&quot;font-size: 15px;&quot;&gt;Customer_number&lt;/font&gt;&lt;/i&gt;" style="shape=partialRectangle;html=1;whiteSpace=wrap;connectable=0;fillColor=none;top=0;left=0;bottom=0;right=0;align=left;spacingLeft=6;overflow=hidden;strokeColor=inherit;fontSize=16;" vertex="1" parent="O8DtlJlHFQ9Xr1stWpEL-13">
          <mxGeometry x="42" width="148" height="40" as="geometry">
            <mxRectangle width="148" height="40" as="alternateBounds" />
          </mxGeometry>
        </mxCell>
        <mxCell id="O8DtlJlHFQ9Xr1stWpEL-16" value="" style="shape=tableRow;horizontal=0;startSize=0;swimlaneHead=0;swimlaneBody=0;top=0;left=0;bottom=0;right=0;collapsible=0;dropTarget=0;fillColor=none;points=[[0,0.5],[1,0.5]];portConstraint=eastwest;strokeColor=inherit;fontSize=16;" vertex="1" parent="O8DtlJlHFQ9Xr1stWpEL-6">
          <mxGeometry y="130" width="190" height="40" as="geometry" />
        </mxCell>
        <mxCell id="O8DtlJlHFQ9Xr1stWpEL-17" value="" style="shape=partialRectangle;html=1;whiteSpace=wrap;connectable=0;fillColor=none;top=0;left=0;bottom=0;right=0;overflow=hidden;strokeColor=inherit;fontSize=16;" vertex="1" parent="O8DtlJlHFQ9Xr1stWpEL-16">
          <mxGeometry width="42" height="40" as="geometry">
            <mxRectangle width="42" height="40" as="alternateBounds" />
          </mxGeometry>
        </mxCell>
        <mxCell id="O8DtlJlHFQ9Xr1stWpEL-18" value="&lt;i&gt;&lt;font style=&quot;font-size: 15px;&quot;&gt;First_name&lt;/font&gt;&lt;/i&gt;" style="shape=partialRectangle;html=1;whiteSpace=wrap;connectable=0;fillColor=none;top=0;left=0;bottom=0;right=0;align=left;spacingLeft=6;overflow=hidden;strokeColor=inherit;fontSize=16;" vertex="1" parent="O8DtlJlHFQ9Xr1stWpEL-16">
          <mxGeometry x="42" width="148" height="40" as="geometry">
            <mxRectangle width="148" height="40" as="alternateBounds" />
          </mxGeometry>
        </mxCell>
        <mxCell id="O8DtlJlHFQ9Xr1stWpEL-19" value="" style="shape=tableRow;horizontal=0;startSize=0;swimlaneHead=0;swimlaneBody=0;top=0;left=0;bottom=0;right=0;collapsible=0;dropTarget=0;fillColor=none;points=[[0,0.5],[1,0.5]];portConstraint=eastwest;strokeColor=inherit;fontSize=16;" vertex="1" parent="O8DtlJlHFQ9Xr1stWpEL-6">
          <mxGeometry y="170" width="190" height="40" as="geometry" />
        </mxCell>
        <mxCell id="O8DtlJlHFQ9Xr1stWpEL-20" value="" style="shape=partialRectangle;html=1;whiteSpace=wrap;connectable=0;fillColor=none;top=0;left=0;bottom=0;right=0;overflow=hidden;strokeColor=inherit;fontSize=16;" vertex="1" parent="O8DtlJlHFQ9Xr1stWpEL-19">
          <mxGeometry width="42" height="40" as="geometry">
            <mxRectangle width="42" height="40" as="alternateBounds" />
          </mxGeometry>
        </mxCell>
        <mxCell id="O8DtlJlHFQ9Xr1stWpEL-21" value="&lt;font style=&quot;font-size: 15px;&quot;&gt;&lt;i&gt;Last_name&lt;/i&gt;&lt;/font&gt;" style="shape=partialRectangle;html=1;whiteSpace=wrap;connectable=0;fillColor=none;top=0;left=0;bottom=0;right=0;align=left;spacingLeft=6;overflow=hidden;strokeColor=inherit;fontSize=16;" vertex="1" parent="O8DtlJlHFQ9Xr1stWpEL-19">
          <mxGeometry x="42" width="148" height="40" as="geometry">
            <mxRectangle width="148" height="40" as="alternateBounds" />
          </mxGeometry>
        </mxCell>
        <mxCell id="O8DtlJlHFQ9Xr1stWpEL-22" value="" style="shape=tableRow;horizontal=0;startSize=0;swimlaneHead=0;swimlaneBody=0;top=0;left=0;bottom=0;right=0;collapsible=0;dropTarget=0;fillColor=none;points=[[0,0.5],[1,0.5]];portConstraint=eastwest;strokeColor=inherit;fontSize=16;" vertex="1" parent="O8DtlJlHFQ9Xr1stWpEL-6">
          <mxGeometry y="210" width="190" height="40" as="geometry" />
        </mxCell>
        <mxCell id="O8DtlJlHFQ9Xr1stWpEL-23" value="" style="shape=partialRectangle;html=1;whiteSpace=wrap;connectable=0;fillColor=none;top=0;left=0;bottom=0;right=0;overflow=hidden;strokeColor=inherit;fontSize=16;" vertex="1" parent="O8DtlJlHFQ9Xr1stWpEL-22">
          <mxGeometry width="42" height="40" as="geometry">
            <mxRectangle width="42" height="40" as="alternateBounds" />
          </mxGeometry>
        </mxCell>
        <mxCell id="O8DtlJlHFQ9Xr1stWpEL-24" value="&lt;font style=&quot;font-size: 15px;&quot;&gt;&lt;i&gt;Country&lt;/i&gt;&lt;/font&gt;" style="shape=partialRectangle;html=1;whiteSpace=wrap;connectable=0;fillColor=none;top=0;left=0;bottom=0;right=0;align=left;spacingLeft=6;overflow=hidden;strokeColor=inherit;fontSize=16;" vertex="1" parent="O8DtlJlHFQ9Xr1stWpEL-22">
          <mxGeometry x="42" width="148" height="40" as="geometry">
            <mxRectangle width="148" height="40" as="alternateBounds" />
          </mxGeometry>
        </mxCell>
        <mxCell id="O8DtlJlHFQ9Xr1stWpEL-25" value="" style="shape=tableRow;horizontal=0;startSize=0;swimlaneHead=0;swimlaneBody=0;top=0;left=0;bottom=0;right=0;collapsible=0;dropTarget=0;fillColor=none;points=[[0,0.5],[1,0.5]];portConstraint=eastwest;strokeColor=inherit;fontSize=16;" vertex="1" parent="O8DtlJlHFQ9Xr1stWpEL-6">
          <mxGeometry y="250" width="190" height="40" as="geometry" />
        </mxCell>
        <mxCell id="O8DtlJlHFQ9Xr1stWpEL-26" value="" style="shape=partialRectangle;html=1;whiteSpace=wrap;connectable=0;fillColor=none;top=0;left=0;bottom=0;right=0;overflow=hidden;strokeColor=inherit;fontSize=16;" vertex="1" parent="O8DtlJlHFQ9Xr1stWpEL-25">
          <mxGeometry width="42" height="40" as="geometry">
            <mxRectangle width="42" height="40" as="alternateBounds" />
          </mxGeometry>
        </mxCell>
        <mxCell id="O8DtlJlHFQ9Xr1stWpEL-27" value="&lt;i&gt;&lt;font style=&quot;font-size: 15px;&quot;&gt;Martial_status&lt;/font&gt;&lt;/i&gt;" style="shape=partialRectangle;html=1;whiteSpace=wrap;connectable=0;fillColor=none;top=0;left=0;bottom=0;right=0;align=left;spacingLeft=6;overflow=hidden;strokeColor=inherit;fontSize=16;" vertex="1" parent="O8DtlJlHFQ9Xr1stWpEL-25">
          <mxGeometry x="42" width="148" height="40" as="geometry">
            <mxRectangle width="148" height="40" as="alternateBounds" />
          </mxGeometry>
        </mxCell>
        <mxCell id="O8DtlJlHFQ9Xr1stWpEL-43" value="" style="shape=tableRow;horizontal=0;startSize=0;swimlaneHead=0;swimlaneBody=0;top=0;left=0;bottom=0;right=0;collapsible=0;dropTarget=0;fillColor=none;points=[[0,0.5],[1,0.5]];portConstraint=eastwest;strokeColor=inherit;fontSize=16;" vertex="1" parent="O8DtlJlHFQ9Xr1stWpEL-6">
          <mxGeometry y="290" width="190" height="40" as="geometry" />
        </mxCell>
        <mxCell id="O8DtlJlHFQ9Xr1stWpEL-44" value="" style="shape=partialRectangle;html=1;whiteSpace=wrap;connectable=0;fillColor=none;top=0;left=0;bottom=0;right=0;overflow=hidden;strokeColor=inherit;fontSize=16;" vertex="1" parent="O8DtlJlHFQ9Xr1stWpEL-43">
          <mxGeometry width="42" height="40" as="geometry">
            <mxRectangle width="42" height="40" as="alternateBounds" />
          </mxGeometry>
        </mxCell>
        <mxCell id="O8DtlJlHFQ9Xr1stWpEL-45" value="&lt;i&gt;&lt;font style=&quot;font-size: 15px;&quot;&gt;Gender&lt;/font&gt;&lt;/i&gt;" style="shape=partialRectangle;html=1;whiteSpace=wrap;connectable=0;fillColor=none;top=0;left=0;bottom=0;right=0;align=left;spacingLeft=6;overflow=hidden;strokeColor=inherit;fontSize=16;" vertex="1" parent="O8DtlJlHFQ9Xr1stWpEL-43">
          <mxGeometry x="42" width="148" height="40" as="geometry">
            <mxRectangle width="148" height="40" as="alternateBounds" />
          </mxGeometry>
        </mxCell>
        <mxCell id="O8DtlJlHFQ9Xr1stWpEL-46" value="" style="shape=tableRow;horizontal=0;startSize=0;swimlaneHead=0;swimlaneBody=0;top=0;left=0;bottom=0;right=0;collapsible=0;dropTarget=0;fillColor=none;points=[[0,0.5],[1,0.5]];portConstraint=eastwest;strokeColor=inherit;fontSize=16;" vertex="1" parent="O8DtlJlHFQ9Xr1stWpEL-6">
          <mxGeometry y="330" width="190" height="40" as="geometry" />
        </mxCell>
        <mxCell id="O8DtlJlHFQ9Xr1stWpEL-47" value="" style="shape=partialRectangle;html=1;whiteSpace=wrap;connectable=0;fillColor=none;top=0;left=0;bottom=0;right=0;overflow=hidden;strokeColor=inherit;fontSize=16;" vertex="1" parent="O8DtlJlHFQ9Xr1stWpEL-46">
          <mxGeometry width="42" height="40" as="geometry">
            <mxRectangle width="42" height="40" as="alternateBounds" />
          </mxGeometry>
        </mxCell>
        <mxCell id="O8DtlJlHFQ9Xr1stWpEL-48" value="&lt;i style=&quot;&quot;&gt;&lt;font style=&quot;font-size: 15px;&quot;&gt;Birthdate&lt;/font&gt;&lt;/i&gt;" style="shape=partialRectangle;html=1;whiteSpace=wrap;connectable=0;fillColor=none;top=0;left=0;bottom=0;right=0;align=left;spacingLeft=6;overflow=hidden;strokeColor=inherit;fontSize=16;" vertex="1" parent="O8DtlJlHFQ9Xr1stWpEL-46">
          <mxGeometry x="42" width="148" height="40" as="geometry">
            <mxRectangle width="148" height="40" as="alternateBounds" />
          </mxGeometry>
        </mxCell>
        <mxCell id="O8DtlJlHFQ9Xr1stWpEL-49" value="" style="shape=tableRow;horizontal=0;startSize=0;swimlaneHead=0;swimlaneBody=0;top=0;left=0;bottom=0;right=0;collapsible=0;dropTarget=0;fillColor=none;points=[[0,0.5],[1,0.5]];portConstraint=eastwest;strokeColor=inherit;fontSize=16;" vertex="1" parent="O8DtlJlHFQ9Xr1stWpEL-6">
          <mxGeometry y="370" width="190" height="40" as="geometry" />
        </mxCell>
        <mxCell id="O8DtlJlHFQ9Xr1stWpEL-50" value="" style="shape=partialRectangle;html=1;whiteSpace=wrap;connectable=0;fillColor=none;top=0;left=0;bottom=0;right=0;overflow=hidden;strokeColor=inherit;fontSize=16;" vertex="1" parent="O8DtlJlHFQ9Xr1stWpEL-49">
          <mxGeometry width="42" height="40" as="geometry">
            <mxRectangle width="42" height="40" as="alternateBounds" />
          </mxGeometry>
        </mxCell>
        <mxCell id="O8DtlJlHFQ9Xr1stWpEL-51" value="&lt;i&gt;&lt;font style=&quot;font-size: 15px;&quot;&gt;Country&lt;/font&gt;&lt;/i&gt;" style="shape=partialRectangle;html=1;whiteSpace=wrap;connectable=0;fillColor=none;top=0;left=0;bottom=0;right=0;align=left;spacingLeft=6;overflow=hidden;strokeColor=inherit;fontSize=16;" vertex="1" parent="O8DtlJlHFQ9Xr1stWpEL-49">
          <mxGeometry x="42" width="148" height="40" as="geometry">
            <mxRectangle width="148" height="40" as="alternateBounds" />
          </mxGeometry>
        </mxCell>
        <mxCell id="O8DtlJlHFQ9Xr1stWpEL-57" value="gold.dim_products" style="shape=table;startSize=30;container=1;collapsible=0;childLayout=tableLayout;fixedRows=1;rowLines=0;fontStyle=1;strokeColor=#d79b00;fontSize=16;rounded=1;fillColor=#ffcd28;gradientColor=#ffa500;" vertex="1" parent="1">
          <mxGeometry x="670" y="70" width="190" height="420" as="geometry" />
        </mxCell>
        <mxCell id="O8DtlJlHFQ9Xr1stWpEL-58" value="" style="shape=tableRow;horizontal=0;startSize=0;swimlaneHead=0;swimlaneBody=0;top=0;left=0;bottom=0;right=0;collapsible=0;dropTarget=0;fillColor=none;points=[[0,0.5],[1,0.5]];portConstraint=eastwest;strokeColor=inherit;fontSize=16;" vertex="1" parent="O8DtlJlHFQ9Xr1stWpEL-57">
          <mxGeometry y="30" width="190" height="30" as="geometry" />
        </mxCell>
        <mxCell id="O8DtlJlHFQ9Xr1stWpEL-59" value="&lt;b&gt;&lt;u&gt;PK&lt;/u&gt;&lt;/b&gt;" style="shape=partialRectangle;html=1;whiteSpace=wrap;connectable=0;fillColor=none;top=0;left=0;bottom=0;right=0;overflow=hidden;pointerEvents=1;strokeColor=inherit;fontSize=16;" vertex="1" parent="O8DtlJlHFQ9Xr1stWpEL-58">
          <mxGeometry width="42" height="30" as="geometry">
            <mxRectangle width="42" height="30" as="alternateBounds" />
          </mxGeometry>
        </mxCell>
        <mxCell id="O8DtlJlHFQ9Xr1stWpEL-60" value="&lt;font style=&quot;font-size: 15px;&quot;&gt;&lt;i&gt;Product key&lt;/i&gt;&lt;/font&gt;" style="shape=partialRectangle;html=1;whiteSpace=wrap;connectable=0;fillColor=none;top=0;left=0;bottom=0;right=0;align=left;spacingLeft=6;overflow=hidden;strokeColor=inherit;fontSize=16;" vertex="1" parent="O8DtlJlHFQ9Xr1stWpEL-58">
          <mxGeometry x="42" width="148" height="30" as="geometry">
            <mxRectangle width="148" height="30" as="alternateBounds" />
          </mxGeometry>
        </mxCell>
        <mxCell id="O8DtlJlHFQ9Xr1stWpEL-61" value="" style="shape=link;html=1;rounded=0;entryX=0.981;entryY=0.947;entryDx=0;entryDy=0;entryPerimeter=0;exitX=0.215;exitY=-0.027;exitDx=0;exitDy=0;exitPerimeter=0;" edge="1" parent="O8DtlJlHFQ9Xr1stWpEL-57" source="O8DtlJlHFQ9Xr1stWpEL-62">
          <mxGeometry width="100" relative="1" as="geometry">
            <mxPoint x="43.69999999999992" y="58.99999999999997" as="sourcePoint" />
            <mxPoint x="189.9999999999999" y="58.99999999999997" as="targetPoint" />
          </mxGeometry>
        </mxCell>
        <mxCell id="O8DtlJlHFQ9Xr1stWpEL-62" value="" style="shape=tableRow;horizontal=0;startSize=0;swimlaneHead=0;swimlaneBody=0;top=0;left=0;bottom=0;right=0;collapsible=0;dropTarget=0;fillColor=none;points=[[0,0.5],[1,0.5]];portConstraint=eastwest;strokeColor=inherit;fontSize=16;" vertex="1" parent="O8DtlJlHFQ9Xr1stWpEL-57">
          <mxGeometry y="60" width="190" height="30" as="geometry" />
        </mxCell>
        <mxCell id="O8DtlJlHFQ9Xr1stWpEL-63" value="" style="shape=partialRectangle;html=1;whiteSpace=wrap;connectable=0;fillColor=none;top=0;left=0;bottom=0;right=0;overflow=hidden;strokeColor=inherit;fontSize=16;" vertex="1" parent="O8DtlJlHFQ9Xr1stWpEL-62">
          <mxGeometry width="42" height="30" as="geometry">
            <mxRectangle width="42" height="30" as="alternateBounds" />
          </mxGeometry>
        </mxCell>
        <mxCell id="O8DtlJlHFQ9Xr1stWpEL-64" value="&lt;font style=&quot;font-size: 15px;&quot;&gt;&lt;i&gt;Product_ id&lt;/i&gt;&lt;/font&gt;" style="shape=partialRectangle;html=1;whiteSpace=wrap;connectable=0;fillColor=none;top=0;left=0;bottom=0;right=0;align=left;spacingLeft=6;overflow=hidden;strokeColor=inherit;fontSize=16;" vertex="1" parent="O8DtlJlHFQ9Xr1stWpEL-62">
          <mxGeometry x="42" width="148" height="30" as="geometry">
            <mxRectangle width="148" height="30" as="alternateBounds" />
          </mxGeometry>
        </mxCell>
        <mxCell id="O8DtlJlHFQ9Xr1stWpEL-65" value="" style="shape=tableRow;horizontal=0;startSize=0;swimlaneHead=0;swimlaneBody=0;top=0;left=0;bottom=0;right=0;collapsible=0;dropTarget=0;fillColor=none;points=[[0,0.5],[1,0.5]];portConstraint=eastwest;strokeColor=inherit;fontSize=16;" vertex="1" parent="O8DtlJlHFQ9Xr1stWpEL-57">
          <mxGeometry y="90" width="190" height="40" as="geometry" />
        </mxCell>
        <mxCell id="O8DtlJlHFQ9Xr1stWpEL-66" value="" style="shape=partialRectangle;html=1;whiteSpace=wrap;connectable=0;fillColor=none;top=0;left=0;bottom=0;right=0;overflow=hidden;strokeColor=inherit;fontSize=16;" vertex="1" parent="O8DtlJlHFQ9Xr1stWpEL-65">
          <mxGeometry width="42" height="40" as="geometry">
            <mxRectangle width="42" height="40" as="alternateBounds" />
          </mxGeometry>
        </mxCell>
        <mxCell id="O8DtlJlHFQ9Xr1stWpEL-67" value="&lt;i&gt;&lt;font style=&quot;font-size: 15px;&quot;&gt;Product_number&lt;/font&gt;&lt;/i&gt;" style="shape=partialRectangle;html=1;whiteSpace=wrap;connectable=0;fillColor=none;top=0;left=0;bottom=0;right=0;align=left;spacingLeft=6;overflow=hidden;strokeColor=inherit;fontSize=16;" vertex="1" parent="O8DtlJlHFQ9Xr1stWpEL-65">
          <mxGeometry x="42" width="148" height="40" as="geometry">
            <mxRectangle width="148" height="40" as="alternateBounds" />
          </mxGeometry>
        </mxCell>
        <mxCell id="O8DtlJlHFQ9Xr1stWpEL-68" value="" style="shape=tableRow;horizontal=0;startSize=0;swimlaneHead=0;swimlaneBody=0;top=0;left=0;bottom=0;right=0;collapsible=0;dropTarget=0;fillColor=none;points=[[0,0.5],[1,0.5]];portConstraint=eastwest;strokeColor=inherit;fontSize=16;" vertex="1" parent="O8DtlJlHFQ9Xr1stWpEL-57">
          <mxGeometry y="130" width="190" height="40" as="geometry" />
        </mxCell>
        <mxCell id="O8DtlJlHFQ9Xr1stWpEL-69" value="" style="shape=partialRectangle;html=1;whiteSpace=wrap;connectable=0;fillColor=none;top=0;left=0;bottom=0;right=0;overflow=hidden;strokeColor=inherit;fontSize=16;" vertex="1" parent="O8DtlJlHFQ9Xr1stWpEL-68">
          <mxGeometry width="42" height="40" as="geometry">
            <mxRectangle width="42" height="40" as="alternateBounds" />
          </mxGeometry>
        </mxCell>
        <mxCell id="O8DtlJlHFQ9Xr1stWpEL-70" value="&lt;span style=&quot;font-size: 15px;&quot;&gt;&lt;i&gt;Catagory_id&lt;/i&gt;&lt;/span&gt;" style="shape=partialRectangle;html=1;whiteSpace=wrap;connectable=0;fillColor=none;top=0;left=0;bottom=0;right=0;align=left;spacingLeft=6;overflow=hidden;strokeColor=inherit;fontSize=16;" vertex="1" parent="O8DtlJlHFQ9Xr1stWpEL-68">
          <mxGeometry x="42" width="148" height="40" as="geometry">
            <mxRectangle width="148" height="40" as="alternateBounds" />
          </mxGeometry>
        </mxCell>
        <mxCell id="O8DtlJlHFQ9Xr1stWpEL-71" value="" style="shape=tableRow;horizontal=0;startSize=0;swimlaneHead=0;swimlaneBody=0;top=0;left=0;bottom=0;right=0;collapsible=0;dropTarget=0;fillColor=none;points=[[0,0.5],[1,0.5]];portConstraint=eastwest;strokeColor=inherit;fontSize=16;" vertex="1" parent="O8DtlJlHFQ9Xr1stWpEL-57">
          <mxGeometry y="170" width="190" height="40" as="geometry" />
        </mxCell>
        <mxCell id="O8DtlJlHFQ9Xr1stWpEL-72" value="" style="shape=partialRectangle;html=1;whiteSpace=wrap;connectable=0;fillColor=none;top=0;left=0;bottom=0;right=0;overflow=hidden;strokeColor=inherit;fontSize=16;" vertex="1" parent="O8DtlJlHFQ9Xr1stWpEL-71">
          <mxGeometry width="42" height="40" as="geometry">
            <mxRectangle width="42" height="40" as="alternateBounds" />
          </mxGeometry>
        </mxCell>
        <mxCell id="O8DtlJlHFQ9Xr1stWpEL-73" value="&lt;span style=&quot;font-size: 15px;&quot;&gt;&lt;i&gt;Catagory&lt;/i&gt;&lt;/span&gt;" style="shape=partialRectangle;html=1;whiteSpace=wrap;connectable=0;fillColor=none;top=0;left=0;bottom=0;right=0;align=left;spacingLeft=6;overflow=hidden;strokeColor=inherit;fontSize=16;" vertex="1" parent="O8DtlJlHFQ9Xr1stWpEL-71">
          <mxGeometry x="42" width="148" height="40" as="geometry">
            <mxRectangle width="148" height="40" as="alternateBounds" />
          </mxGeometry>
        </mxCell>
        <mxCell id="O8DtlJlHFQ9Xr1stWpEL-74" value="" style="shape=tableRow;horizontal=0;startSize=0;swimlaneHead=0;swimlaneBody=0;top=0;left=0;bottom=0;right=0;collapsible=0;dropTarget=0;fillColor=none;points=[[0,0.5],[1,0.5]];portConstraint=eastwest;strokeColor=inherit;fontSize=16;" vertex="1" parent="O8DtlJlHFQ9Xr1stWpEL-57">
          <mxGeometry y="210" width="190" height="40" as="geometry" />
        </mxCell>
        <mxCell id="O8DtlJlHFQ9Xr1stWpEL-75" value="" style="shape=partialRectangle;html=1;whiteSpace=wrap;connectable=0;fillColor=none;top=0;left=0;bottom=0;right=0;overflow=hidden;strokeColor=inherit;fontSize=16;" vertex="1" parent="O8DtlJlHFQ9Xr1stWpEL-74">
          <mxGeometry width="42" height="40" as="geometry">
            <mxRectangle width="42" height="40" as="alternateBounds" />
          </mxGeometry>
        </mxCell>
        <mxCell id="O8DtlJlHFQ9Xr1stWpEL-76" value="&lt;font style=&quot;font-size: 15px;&quot;&gt;&lt;i&gt;Subcatagory&lt;/i&gt;&lt;/font&gt;" style="shape=partialRectangle;html=1;whiteSpace=wrap;connectable=0;fillColor=none;top=0;left=0;bottom=0;right=0;align=left;spacingLeft=6;overflow=hidden;strokeColor=inherit;fontSize=16;" vertex="1" parent="O8DtlJlHFQ9Xr1stWpEL-74">
          <mxGeometry x="42" width="148" height="40" as="geometry">
            <mxRectangle width="148" height="40" as="alternateBounds" />
          </mxGeometry>
        </mxCell>
        <mxCell id="O8DtlJlHFQ9Xr1stWpEL-77" value="" style="shape=tableRow;horizontal=0;startSize=0;swimlaneHead=0;swimlaneBody=0;top=0;left=0;bottom=0;right=0;collapsible=0;dropTarget=0;fillColor=none;points=[[0,0.5],[1,0.5]];portConstraint=eastwest;strokeColor=inherit;fontSize=16;" vertex="1" parent="O8DtlJlHFQ9Xr1stWpEL-57">
          <mxGeometry y="250" width="190" height="40" as="geometry" />
        </mxCell>
        <mxCell id="O8DtlJlHFQ9Xr1stWpEL-78" value="" style="shape=partialRectangle;html=1;whiteSpace=wrap;connectable=0;fillColor=none;top=0;left=0;bottom=0;right=0;overflow=hidden;strokeColor=inherit;fontSize=16;" vertex="1" parent="O8DtlJlHFQ9Xr1stWpEL-77">
          <mxGeometry width="42" height="40" as="geometry">
            <mxRectangle width="42" height="40" as="alternateBounds" />
          </mxGeometry>
        </mxCell>
        <mxCell id="O8DtlJlHFQ9Xr1stWpEL-79" value="&lt;i&gt;&lt;font style=&quot;font-size: 15px;&quot;&gt;Maintenance&lt;/font&gt;&lt;/i&gt;" style="shape=partialRectangle;html=1;whiteSpace=wrap;connectable=0;fillColor=none;top=0;left=0;bottom=0;right=0;align=left;spacingLeft=6;overflow=hidden;strokeColor=inherit;fontSize=16;" vertex="1" parent="O8DtlJlHFQ9Xr1stWpEL-77">
          <mxGeometry x="42" width="148" height="40" as="geometry">
            <mxRectangle width="148" height="40" as="alternateBounds" />
          </mxGeometry>
        </mxCell>
        <mxCell id="O8DtlJlHFQ9Xr1stWpEL-80" value="" style="shape=tableRow;horizontal=0;startSize=0;swimlaneHead=0;swimlaneBody=0;top=0;left=0;bottom=0;right=0;collapsible=0;dropTarget=0;fillColor=none;points=[[0,0.5],[1,0.5]];portConstraint=eastwest;strokeColor=inherit;fontSize=16;" vertex="1" parent="O8DtlJlHFQ9Xr1stWpEL-57">
          <mxGeometry y="290" width="190" height="40" as="geometry" />
        </mxCell>
        <mxCell id="O8DtlJlHFQ9Xr1stWpEL-81" value="" style="shape=partialRectangle;html=1;whiteSpace=wrap;connectable=0;fillColor=none;top=0;left=0;bottom=0;right=0;overflow=hidden;strokeColor=inherit;fontSize=16;" vertex="1" parent="O8DtlJlHFQ9Xr1stWpEL-80">
          <mxGeometry width="42" height="40" as="geometry">
            <mxRectangle width="42" height="40" as="alternateBounds" />
          </mxGeometry>
        </mxCell>
        <mxCell id="O8DtlJlHFQ9Xr1stWpEL-82" value="&lt;i&gt;&lt;font style=&quot;font-size: 15px;&quot;&gt;Cost&lt;/font&gt;&lt;/i&gt;" style="shape=partialRectangle;html=1;whiteSpace=wrap;connectable=0;fillColor=none;top=0;left=0;bottom=0;right=0;align=left;spacingLeft=6;overflow=hidden;strokeColor=inherit;fontSize=16;" vertex="1" parent="O8DtlJlHFQ9Xr1stWpEL-80">
          <mxGeometry x="42" width="148" height="40" as="geometry">
            <mxRectangle width="148" height="40" as="alternateBounds" />
          </mxGeometry>
        </mxCell>
        <mxCell id="O8DtlJlHFQ9Xr1stWpEL-83" value="" style="shape=tableRow;horizontal=0;startSize=0;swimlaneHead=0;swimlaneBody=0;top=0;left=0;bottom=0;right=0;collapsible=0;dropTarget=0;fillColor=none;points=[[0,0.5],[1,0.5]];portConstraint=eastwest;strokeColor=inherit;fontSize=16;" vertex="1" parent="O8DtlJlHFQ9Xr1stWpEL-57">
          <mxGeometry y="330" width="190" height="40" as="geometry" />
        </mxCell>
        <mxCell id="O8DtlJlHFQ9Xr1stWpEL-84" value="" style="shape=partialRectangle;html=1;whiteSpace=wrap;connectable=0;fillColor=none;top=0;left=0;bottom=0;right=0;overflow=hidden;strokeColor=inherit;fontSize=16;" vertex="1" parent="O8DtlJlHFQ9Xr1stWpEL-83">
          <mxGeometry width="42" height="40" as="geometry">
            <mxRectangle width="42" height="40" as="alternateBounds" />
          </mxGeometry>
        </mxCell>
        <mxCell id="O8DtlJlHFQ9Xr1stWpEL-85" value="&lt;i style=&quot;&quot;&gt;&lt;font style=&quot;font-size: 15px;&quot;&gt;Product_line&lt;/font&gt;&lt;/i&gt;" style="shape=partialRectangle;html=1;whiteSpace=wrap;connectable=0;fillColor=none;top=0;left=0;bottom=0;right=0;align=left;spacingLeft=6;overflow=hidden;strokeColor=inherit;fontSize=16;" vertex="1" parent="O8DtlJlHFQ9Xr1stWpEL-83">
          <mxGeometry x="42" width="148" height="40" as="geometry">
            <mxRectangle width="148" height="40" as="alternateBounds" />
          </mxGeometry>
        </mxCell>
        <mxCell id="O8DtlJlHFQ9Xr1stWpEL-86" value="" style="shape=tableRow;horizontal=0;startSize=0;swimlaneHead=0;swimlaneBody=0;top=0;left=0;bottom=0;right=0;collapsible=0;dropTarget=0;fillColor=none;points=[[0,0.5],[1,0.5]];portConstraint=eastwest;strokeColor=inherit;fontSize=16;" vertex="1" parent="O8DtlJlHFQ9Xr1stWpEL-57">
          <mxGeometry y="370" width="190" height="40" as="geometry" />
        </mxCell>
        <mxCell id="O8DtlJlHFQ9Xr1stWpEL-87" value="" style="shape=partialRectangle;html=1;whiteSpace=wrap;connectable=0;fillColor=none;top=0;left=0;bottom=0;right=0;overflow=hidden;strokeColor=inherit;fontSize=16;" vertex="1" parent="O8DtlJlHFQ9Xr1stWpEL-86">
          <mxGeometry width="42" height="40" as="geometry">
            <mxRectangle width="42" height="40" as="alternateBounds" />
          </mxGeometry>
        </mxCell>
        <mxCell id="O8DtlJlHFQ9Xr1stWpEL-88" value="&lt;i&gt;&lt;font style=&quot;font-size: 15px;&quot;&gt;Start_date&lt;/font&gt;&lt;/i&gt;" style="shape=partialRectangle;html=1;whiteSpace=wrap;connectable=0;fillColor=none;top=0;left=0;bottom=0;right=0;align=left;spacingLeft=6;overflow=hidden;strokeColor=inherit;fontSize=16;" vertex="1" parent="O8DtlJlHFQ9Xr1stWpEL-86">
          <mxGeometry x="42" width="148" height="40" as="geometry">
            <mxRectangle width="148" height="40" as="alternateBounds" />
          </mxGeometry>
        </mxCell>
        <mxCell id="O8DtlJlHFQ9Xr1stWpEL-89" value="gold.fact_sales" style="shape=table;startSize=30;container=1;collapsible=0;childLayout=tableLayout;fixedRows=1;rowLines=0;fontStyle=0;strokeColor=#82b366;fontSize=16;rounded=1;fillColor=#d5e8d4;gradientColor=#97d077;" vertex="1" parent="1">
          <mxGeometry x="340" y="190" width="190" height="390" as="geometry" />
        </mxCell>
        <mxCell id="O8DtlJlHFQ9Xr1stWpEL-90" value="" style="shape=tableRow;horizontal=0;startSize=0;swimlaneHead=0;swimlaneBody=0;top=0;left=0;bottom=0;right=0;collapsible=0;dropTarget=0;fillColor=none;points=[[0,0.5],[1,0.5]];portConstraint=eastwest;strokeColor=inherit;fontSize=16;" vertex="1" parent="O8DtlJlHFQ9Xr1stWpEL-89">
          <mxGeometry y="30" width="190" height="30" as="geometry" />
        </mxCell>
        <mxCell id="O8DtlJlHFQ9Xr1stWpEL-91" value="" style="shape=partialRectangle;html=1;whiteSpace=wrap;connectable=0;fillColor=none;top=0;left=0;bottom=0;right=0;overflow=hidden;pointerEvents=1;strokeColor=inherit;fontSize=16;" vertex="1" parent="O8DtlJlHFQ9Xr1stWpEL-90">
          <mxGeometry width="42" height="30" as="geometry">
            <mxRectangle width="42" height="30" as="alternateBounds" />
          </mxGeometry>
        </mxCell>
        <mxCell id="O8DtlJlHFQ9Xr1stWpEL-92" value="&lt;span style=&quot;font-size: 15px;&quot;&gt;&lt;i&gt;order_number&lt;/i&gt;&lt;/span&gt;" style="shape=partialRectangle;html=1;whiteSpace=wrap;connectable=0;fillColor=none;top=0;left=0;bottom=0;right=0;align=left;spacingLeft=6;overflow=hidden;strokeColor=inherit;fontSize=16;" vertex="1" parent="O8DtlJlHFQ9Xr1stWpEL-90">
          <mxGeometry x="42" width="148" height="30" as="geometry">
            <mxRectangle width="148" height="30" as="alternateBounds" />
          </mxGeometry>
        </mxCell>
        <mxCell id="O8DtlJlHFQ9Xr1stWpEL-93" value="" style="shape=link;html=1;rounded=0;entryX=0.981;entryY=0.947;entryDx=0;entryDy=0;entryPerimeter=0;exitX=0.215;exitY=-0.027;exitDx=0;exitDy=0;exitPerimeter=0;" edge="1" parent="O8DtlJlHFQ9Xr1stWpEL-89" source="O8DtlJlHFQ9Xr1stWpEL-94">
          <mxGeometry width="100" relative="1" as="geometry">
            <mxPoint x="43.69999999999992" y="58.99999999999997" as="sourcePoint" />
            <mxPoint x="189.9999999999999" y="58.99999999999997" as="targetPoint" />
          </mxGeometry>
        </mxCell>
        <mxCell id="O8DtlJlHFQ9Xr1stWpEL-94" value="" style="shape=tableRow;horizontal=0;startSize=0;swimlaneHead=0;swimlaneBody=0;top=0;left=0;bottom=0;right=0;collapsible=0;dropTarget=0;fillColor=none;points=[[0,0.5],[1,0.5]];portConstraint=eastwest;strokeColor=inherit;fontSize=16;" vertex="1" parent="O8DtlJlHFQ9Xr1stWpEL-89">
          <mxGeometry y="60" width="190" height="30" as="geometry" />
        </mxCell>
        <mxCell id="O8DtlJlHFQ9Xr1stWpEL-95" value="&lt;b&gt;&lt;u&gt;FK&lt;/u&gt;&lt;/b&gt;" style="shape=partialRectangle;html=1;whiteSpace=wrap;connectable=0;fillColor=none;top=0;left=0;bottom=0;right=0;overflow=hidden;strokeColor=inherit;fontSize=16;" vertex="1" parent="O8DtlJlHFQ9Xr1stWpEL-94">
          <mxGeometry width="42" height="30" as="geometry">
            <mxRectangle width="42" height="30" as="alternateBounds" />
          </mxGeometry>
        </mxCell>
        <mxCell id="O8DtlJlHFQ9Xr1stWpEL-96" value="&lt;font style=&quot;font-size: 15px;&quot;&gt;&lt;i&gt;Product_key&lt;/i&gt;&lt;/font&gt;" style="shape=partialRectangle;html=1;whiteSpace=wrap;connectable=0;fillColor=none;top=0;left=0;bottom=0;right=0;align=left;spacingLeft=6;overflow=hidden;strokeColor=inherit;fontSize=16;" vertex="1" parent="O8DtlJlHFQ9Xr1stWpEL-94">
          <mxGeometry x="42" width="148" height="30" as="geometry">
            <mxRectangle width="148" height="30" as="alternateBounds" />
          </mxGeometry>
        </mxCell>
        <mxCell id="O8DtlJlHFQ9Xr1stWpEL-97" value="" style="shape=tableRow;horizontal=0;startSize=0;swimlaneHead=0;swimlaneBody=0;top=0;left=0;bottom=0;right=0;collapsible=0;dropTarget=0;fillColor=none;points=[[0,0.5],[1,0.5]];portConstraint=eastwest;strokeColor=inherit;fontSize=16;" vertex="1" parent="O8DtlJlHFQ9Xr1stWpEL-89">
          <mxGeometry y="90" width="190" height="40" as="geometry" />
        </mxCell>
        <mxCell id="O8DtlJlHFQ9Xr1stWpEL-98" value="&lt;b&gt;&lt;u&gt;FK&lt;/u&gt;&lt;/b&gt;" style="shape=partialRectangle;html=1;whiteSpace=wrap;connectable=0;fillColor=none;top=0;left=0;bottom=0;right=0;overflow=hidden;strokeColor=inherit;fontSize=16;" vertex="1" parent="O8DtlJlHFQ9Xr1stWpEL-97">
          <mxGeometry width="42" height="40" as="geometry">
            <mxRectangle width="42" height="40" as="alternateBounds" />
          </mxGeometry>
        </mxCell>
        <mxCell id="O8DtlJlHFQ9Xr1stWpEL-99" value="&lt;i&gt;&lt;font style=&quot;font-size: 15px;&quot;&gt;Customer_key&lt;/font&gt;&lt;/i&gt;" style="shape=partialRectangle;html=1;whiteSpace=wrap;connectable=0;fillColor=none;top=0;left=0;bottom=0;right=0;align=left;spacingLeft=6;overflow=hidden;strokeColor=inherit;fontSize=16;" vertex="1" parent="O8DtlJlHFQ9Xr1stWpEL-97">
          <mxGeometry x="42" width="148" height="40" as="geometry">
            <mxRectangle width="148" height="40" as="alternateBounds" />
          </mxGeometry>
        </mxCell>
        <mxCell id="O8DtlJlHFQ9Xr1stWpEL-100" value="" style="shape=tableRow;horizontal=0;startSize=0;swimlaneHead=0;swimlaneBody=0;top=0;left=0;bottom=0;right=0;collapsible=0;dropTarget=0;fillColor=none;points=[[0,0.5],[1,0.5]];portConstraint=eastwest;strokeColor=inherit;fontSize=16;" vertex="1" parent="O8DtlJlHFQ9Xr1stWpEL-89">
          <mxGeometry y="130" width="190" height="40" as="geometry" />
        </mxCell>
        <mxCell id="O8DtlJlHFQ9Xr1stWpEL-101" value="" style="shape=partialRectangle;html=1;whiteSpace=wrap;connectable=0;fillColor=none;top=0;left=0;bottom=0;right=0;overflow=hidden;strokeColor=inherit;fontSize=16;" vertex="1" parent="O8DtlJlHFQ9Xr1stWpEL-100">
          <mxGeometry width="42" height="40" as="geometry">
            <mxRectangle width="42" height="40" as="alternateBounds" />
          </mxGeometry>
        </mxCell>
        <mxCell id="O8DtlJlHFQ9Xr1stWpEL-102" value="&lt;span style=&quot;font-size: 15px;&quot;&gt;&lt;i&gt;Order_date&lt;/i&gt;&lt;/span&gt;" style="shape=partialRectangle;html=1;whiteSpace=wrap;connectable=0;fillColor=none;top=0;left=0;bottom=0;right=0;align=left;spacingLeft=6;overflow=hidden;strokeColor=inherit;fontSize=16;" vertex="1" parent="O8DtlJlHFQ9Xr1stWpEL-100">
          <mxGeometry x="42" width="148" height="40" as="geometry">
            <mxRectangle width="148" height="40" as="alternateBounds" />
          </mxGeometry>
        </mxCell>
        <mxCell id="O8DtlJlHFQ9Xr1stWpEL-103" value="" style="shape=tableRow;horizontal=0;startSize=0;swimlaneHead=0;swimlaneBody=0;top=0;left=0;bottom=0;right=0;collapsible=0;dropTarget=0;fillColor=none;points=[[0,0.5],[1,0.5]];portConstraint=eastwest;strokeColor=inherit;fontSize=16;" vertex="1" parent="O8DtlJlHFQ9Xr1stWpEL-89">
          <mxGeometry y="170" width="190" height="40" as="geometry" />
        </mxCell>
        <mxCell id="O8DtlJlHFQ9Xr1stWpEL-104" value="" style="shape=partialRectangle;html=1;whiteSpace=wrap;connectable=0;fillColor=none;top=0;left=0;bottom=0;right=0;overflow=hidden;strokeColor=inherit;fontSize=16;" vertex="1" parent="O8DtlJlHFQ9Xr1stWpEL-103">
          <mxGeometry width="42" height="40" as="geometry">
            <mxRectangle width="42" height="40" as="alternateBounds" />
          </mxGeometry>
        </mxCell>
        <mxCell id="O8DtlJlHFQ9Xr1stWpEL-105" value="&lt;font style=&quot;font-size: 15px;&quot;&gt;&lt;i&gt;Shipping_date&lt;/i&gt;&lt;/font&gt;" style="shape=partialRectangle;html=1;whiteSpace=wrap;connectable=0;fillColor=none;top=0;left=0;bottom=0;right=0;align=left;spacingLeft=6;overflow=hidden;strokeColor=inherit;fontSize=16;" vertex="1" parent="O8DtlJlHFQ9Xr1stWpEL-103">
          <mxGeometry x="42" width="148" height="40" as="geometry">
            <mxRectangle width="148" height="40" as="alternateBounds" />
          </mxGeometry>
        </mxCell>
        <mxCell id="O8DtlJlHFQ9Xr1stWpEL-106" value="" style="shape=tableRow;horizontal=0;startSize=0;swimlaneHead=0;swimlaneBody=0;top=0;left=0;bottom=0;right=0;collapsible=0;dropTarget=0;fillColor=none;points=[[0,0.5],[1,0.5]];portConstraint=eastwest;strokeColor=inherit;fontSize=16;" vertex="1" parent="O8DtlJlHFQ9Xr1stWpEL-89">
          <mxGeometry y="210" width="190" height="40" as="geometry" />
        </mxCell>
        <mxCell id="O8DtlJlHFQ9Xr1stWpEL-107" value="" style="shape=partialRectangle;html=1;whiteSpace=wrap;connectable=0;fillColor=none;top=0;left=0;bottom=0;right=0;overflow=hidden;strokeColor=inherit;fontSize=16;" vertex="1" parent="O8DtlJlHFQ9Xr1stWpEL-106">
          <mxGeometry width="42" height="40" as="geometry">
            <mxRectangle width="42" height="40" as="alternateBounds" />
          </mxGeometry>
        </mxCell>
        <mxCell id="O8DtlJlHFQ9Xr1stWpEL-108" value="&lt;font style=&quot;font-size: 15px;&quot;&gt;&lt;i&gt;Due_date&lt;/i&gt;&lt;/font&gt;" style="shape=partialRectangle;html=1;whiteSpace=wrap;connectable=0;fillColor=none;top=0;left=0;bottom=0;right=0;align=left;spacingLeft=6;overflow=hidden;strokeColor=inherit;fontSize=16;" vertex="1" parent="O8DtlJlHFQ9Xr1stWpEL-106">
          <mxGeometry x="42" width="148" height="40" as="geometry">
            <mxRectangle width="148" height="40" as="alternateBounds" />
          </mxGeometry>
        </mxCell>
        <mxCell id="O8DtlJlHFQ9Xr1stWpEL-109" value="" style="shape=tableRow;horizontal=0;startSize=0;swimlaneHead=0;swimlaneBody=0;top=0;left=0;bottom=0;right=0;collapsible=0;dropTarget=0;fillColor=none;points=[[0,0.5],[1,0.5]];portConstraint=eastwest;strokeColor=inherit;fontSize=16;" vertex="1" parent="O8DtlJlHFQ9Xr1stWpEL-89">
          <mxGeometry y="250" width="190" height="40" as="geometry" />
        </mxCell>
        <mxCell id="O8DtlJlHFQ9Xr1stWpEL-110" value="" style="shape=partialRectangle;html=1;whiteSpace=wrap;connectable=0;fillColor=none;top=0;left=0;bottom=0;right=0;overflow=hidden;strokeColor=inherit;fontSize=16;" vertex="1" parent="O8DtlJlHFQ9Xr1stWpEL-109">
          <mxGeometry width="42" height="40" as="geometry">
            <mxRectangle width="42" height="40" as="alternateBounds" />
          </mxGeometry>
        </mxCell>
        <mxCell id="O8DtlJlHFQ9Xr1stWpEL-111" value="&lt;i&gt;&lt;font style=&quot;font-size: 15px;&quot;&gt;Sales_amount&lt;/font&gt;&lt;/i&gt;" style="shape=partialRectangle;html=1;whiteSpace=wrap;connectable=0;fillColor=none;top=0;left=0;bottom=0;right=0;align=left;spacingLeft=6;overflow=hidden;strokeColor=inherit;fontSize=16;" vertex="1" parent="O8DtlJlHFQ9Xr1stWpEL-109">
          <mxGeometry x="42" width="148" height="40" as="geometry">
            <mxRectangle width="148" height="40" as="alternateBounds" />
          </mxGeometry>
        </mxCell>
        <mxCell id="O8DtlJlHFQ9Xr1stWpEL-112" value="" style="shape=tableRow;horizontal=0;startSize=0;swimlaneHead=0;swimlaneBody=0;top=0;left=0;bottom=0;right=0;collapsible=0;dropTarget=0;fillColor=none;points=[[0,0.5],[1,0.5]];portConstraint=eastwest;strokeColor=inherit;fontSize=16;" vertex="1" parent="O8DtlJlHFQ9Xr1stWpEL-89">
          <mxGeometry y="290" width="190" height="40" as="geometry" />
        </mxCell>
        <mxCell id="O8DtlJlHFQ9Xr1stWpEL-113" value="" style="shape=partialRectangle;html=1;whiteSpace=wrap;connectable=0;fillColor=none;top=0;left=0;bottom=0;right=0;overflow=hidden;strokeColor=inherit;fontSize=16;" vertex="1" parent="O8DtlJlHFQ9Xr1stWpEL-112">
          <mxGeometry width="42" height="40" as="geometry">
            <mxRectangle width="42" height="40" as="alternateBounds" />
          </mxGeometry>
        </mxCell>
        <mxCell id="O8DtlJlHFQ9Xr1stWpEL-114" value="&lt;i&gt;&lt;font style=&quot;font-size: 15px;&quot;&gt;Quantity&lt;/font&gt;&lt;/i&gt;" style="shape=partialRectangle;html=1;whiteSpace=wrap;connectable=0;fillColor=none;top=0;left=0;bottom=0;right=0;align=left;spacingLeft=6;overflow=hidden;strokeColor=inherit;fontSize=16;" vertex="1" parent="O8DtlJlHFQ9Xr1stWpEL-112">
          <mxGeometry x="42" width="148" height="40" as="geometry">
            <mxRectangle width="148" height="40" as="alternateBounds" />
          </mxGeometry>
        </mxCell>
        <mxCell id="O8DtlJlHFQ9Xr1stWpEL-115" value="" style="shape=tableRow;horizontal=0;startSize=0;swimlaneHead=0;swimlaneBody=0;top=0;left=0;bottom=0;right=0;collapsible=0;dropTarget=0;fillColor=none;points=[[0,0.5],[1,0.5]];portConstraint=eastwest;strokeColor=inherit;fontSize=16;" vertex="1" parent="O8DtlJlHFQ9Xr1stWpEL-89">
          <mxGeometry y="330" width="190" height="40" as="geometry" />
        </mxCell>
        <mxCell id="O8DtlJlHFQ9Xr1stWpEL-116" value="" style="shape=partialRectangle;html=1;whiteSpace=wrap;connectable=0;fillColor=none;top=0;left=0;bottom=0;right=0;overflow=hidden;strokeColor=inherit;fontSize=16;" vertex="1" parent="O8DtlJlHFQ9Xr1stWpEL-115">
          <mxGeometry width="42" height="40" as="geometry">
            <mxRectangle width="42" height="40" as="alternateBounds" />
          </mxGeometry>
        </mxCell>
        <mxCell id="O8DtlJlHFQ9Xr1stWpEL-117" value="&lt;i style=&quot;&quot;&gt;&lt;font style=&quot;font-size: 15px;&quot;&gt;Price&lt;/font&gt;&lt;/i&gt;" style="shape=partialRectangle;html=1;whiteSpace=wrap;connectable=0;fillColor=none;top=0;left=0;bottom=0;right=0;align=left;spacingLeft=6;overflow=hidden;strokeColor=inherit;fontSize=16;" vertex="1" parent="O8DtlJlHFQ9Xr1stWpEL-115">
          <mxGeometry x="42" width="148" height="40" as="geometry">
            <mxRectangle width="148" height="40" as="alternateBounds" />
          </mxGeometry>
        </mxCell>
        <mxCell id="O8DtlJlHFQ9Xr1stWpEL-118" value="" style="shape=tableRow;horizontal=0;startSize=0;swimlaneHead=0;swimlaneBody=0;top=0;left=0;bottom=0;right=0;collapsible=0;dropTarget=0;fillColor=none;points=[[0,0.5],[1,0.5]];portConstraint=eastwest;strokeColor=inherit;fontSize=16;" vertex="1" parent="O8DtlJlHFQ9Xr1stWpEL-89">
          <mxGeometry y="370" width="190" height="20" as="geometry" />
        </mxCell>
        <mxCell id="O8DtlJlHFQ9Xr1stWpEL-119" value="" style="shape=partialRectangle;html=1;whiteSpace=wrap;connectable=0;fillColor=none;top=0;left=0;bottom=0;right=0;overflow=hidden;strokeColor=inherit;fontSize=16;" vertex="1" parent="O8DtlJlHFQ9Xr1stWpEL-118">
          <mxGeometry width="42" height="20" as="geometry">
            <mxRectangle width="42" height="20" as="alternateBounds" />
          </mxGeometry>
        </mxCell>
        <mxCell id="O8DtlJlHFQ9Xr1stWpEL-120" value="" style="shape=partialRectangle;html=1;whiteSpace=wrap;connectable=0;fillColor=none;top=0;left=0;bottom=0;right=0;align=left;spacingLeft=6;overflow=hidden;strokeColor=inherit;fontSize=16;" vertex="1" parent="O8DtlJlHFQ9Xr1stWpEL-118">
          <mxGeometry x="42" width="148" height="20" as="geometry">
            <mxRectangle width="148" height="20" as="alternateBounds" />
          </mxGeometry>
        </mxCell>
        <mxCell id="O8DtlJlHFQ9Xr1stWpEL-125" value="&lt;b&gt;&lt;font face=&quot;Times New Roman&quot; style=&quot;font-size: 19px;&quot;&gt;Sales Data Mart (Star Schema)&lt;/font&gt;&lt;/b&gt;" style="text;html=1;align=center;verticalAlign=middle;whiteSpace=wrap;rounded=0;" vertex="1" parent="1">
          <mxGeometry x="20" y="10" width="360" height="30" as="geometry" />
        </mxCell>
        <mxCell id="O8DtlJlHFQ9Xr1stWpEL-126" value="" style="edgeStyle=entityRelationEdgeStyle;fontSize=12;html=1;endArrow=ERzeroToMany;startArrow=ERmandOne;rounded=0;entryX=1;entryY=0.5;entryDx=0;entryDy=0;exitX=0;exitY=0.5;exitDx=0;exitDy=0;" edge="1" parent="1" source="O8DtlJlHFQ9Xr1stWpEL-58" target="O8DtlJlHFQ9Xr1stWpEL-94">
          <mxGeometry width="100" height="100" relative="1" as="geometry">
            <mxPoint x="640" y="150" as="sourcePoint" />
            <mxPoint x="570" y="295" as="targetPoint" />
          </mxGeometry>
        </mxCell>
        <mxCell id="O8DtlJlHFQ9Xr1stWpEL-128" value="" style="edgeStyle=entityRelationEdgeStyle;fontSize=12;html=1;endArrow=ERzeroToMany;startArrow=ERmandOne;rounded=0;entryX=0;entryY=0.5;entryDx=0;entryDy=0;" edge="1" parent="1" source="O8DtlJlHFQ9Xr1stWpEL-7" target="O8DtlJlHFQ9Xr1stWpEL-97">
          <mxGeometry width="100" height="100" relative="1" as="geometry">
            <mxPoint x="180" y="150" as="sourcePoint" />
            <mxPoint x="340" y="305" as="targetPoint" />
          </mxGeometry>
        </mxCell>
      </root>
    </mxGraphModel>
  </diagram>
</mxfile>
